<svg version="1.1" id="Capa_1" xmlns="http://www.w3.org/2000/svg" xmlns:xlink="http://www.w3.org/1999/xlink" x="0px" y="0px" viewBox="0 0 512 512" style="enable-background:new 0 0 512 512;" xml:space="preserve">
<g>
	<path style="fill:none;stroke:#000000;stroke-width:30;stroke-linecap:round;stroke-linejoin:round;stroke-miterlimit:10;" d="&#10;&#9;&#9;M497,205.792l-22.05-1.837c-32.537-2.711-48.417-41.049-27.327-65.973l14.293-16.891L390.91,50.085l-16.891,14.293&#10;&#9;&#9;c-24.924,21.09-63.262,5.21-65.973-27.327L306.208,15H205.792l-1.837,22.05c-2.711,32.537-41.049,48.417-65.973,27.327&#10;&#9;&#9;L121.09,50.085L50.085,121.09l14.293,16.891c21.09,24.924,5.21,63.262-27.327,65.973L15,205.792v100.417l22.05,1.837&#10;&#9;&#9;c32.537,2.711,48.417,41.049,27.327,65.973L50.085,390.91l71.005,71.006l16.891-14.293c24.924-21.09,63.262-5.21,65.973,27.327&#10;&#9;&#9;l1.837,22.05h100.417l1.837-22.05c2.711-32.537,41.049-48.417,65.973-27.327l16.891,14.293l71.005-71.006l-14.292-16.891&#10;&#9;&#9;c-21.09-24.924-5.21-63.262,27.327-65.973l22.05-1.837V205.792z"/>
	
		<circle style="fill:none;stroke:#000000;stroke-width:30;stroke-linecap:round;stroke-linejoin:round;stroke-miterlimit:10;" cx="256" cy="256" r="140"/>
	
		<line style="fill:none;stroke:#000000;stroke-width:30;stroke-linecap:round;stroke-linejoin:round;stroke-miterlimit:10;" x1="256" y1="226" x2="256" y2="176"/>
	
		<line style="fill:none;stroke:#000000;stroke-width:30;stroke-linecap:round;stroke-linejoin:round;stroke-miterlimit:10;" x1="226" y1="256" x2="176" y2="256"/>
	
		<circle style="fill:none;stroke:#000000;stroke-width:30;stroke-linecap:round;stroke-linejoin:round;stroke-miterlimit:10;" cx="256" cy="256" r="30"/>
</g>
<g>
</g>
<g>
</g>
<g>
</g>
<g>
</g>
<g>
</g>
<g>
</g>
<g>
</g>
<g>
</g>
<g>
</g>
<g>
</g>
<g>
</g>
<g>
</g>
<g>
</g>
<g>
</g>
<g>
</g>
</svg>