<?xml version="1.0" encoding="utf-8"?>
<!-- Generator: Adobe Illustrator 28.0.0, SVG Export Plug-In . SVG Version: 6.00 Build 0)  -->
<svg version="1.1" id="Grupa_1_00000174563112119723454100000003424623687046418818_"
	 xmlns="http://www.w3.org/2000/svg" xmlns:xlink="http://www.w3.org/1999/xlink" x="0px" y="0px" viewBox="0 0 759.36 113.28"
	 style="enable-background:new 0 0 759.36 113.28;" xml:space="preserve">
<style type="text/css">
	.st0{fill:#F4F6F9;}
</style>
<g id="Messebau">
	<g>
		<path class="st0" d="M278.36,92.85h-1.25c-0.95,0-1.25,0.99-1.32,1.23l-3.41,9.7c-0.02,0.1-0.07,0.24-0.19,0.24
			s-0.19-0.14-0.21-0.24l-3.41-9.7c-0.07-0.24-0.33-1.23-1.28-1.23h-1.25c-0.71,0-1.23,0.52-1.23,1.23v16.09
			c0,0.71,0.38,1.18,1.09,1.18h1.47c0.71,0,1.14-0.47,1.14-1.18v-7.43c0-0.05,0-0.69,0.14-0.69c0.12,0,0.28,0.62,0.28,0.62
			l1.82,5.37c0.24,0.69,0.52,1.18,1.11,1.18h0.66c0.59,0,0.87-0.5,1.11-1.18l1.82-5.37c0,0,0.17-0.62,0.28-0.62
			c0.14,0,0.14,0.64,0.14,0.69v7.43c0,0.71,0.4,1.18,1.11,1.18h1.47c0.71,0,1.11-0.47,1.11-1.18V94.08
			C279.57,93.37,279.07,92.85,278.36,92.85z M330.9,92.85h-5.63c-0.71,0-1.23,0.52-1.23,1.23v16.04c0,0.71,0.52,1.23,1.23,1.23h5.63
			c0.71,0,1.06-0.19,1.06-0.9v-0.59c0-0.71-0.35-0.9-1.06-0.9h-2.15c-0.71,0-0.97-0.33-0.97-1.04v-3.6c0-0.71,0.35-1.02,1.06-1.02
			h1.3c0.71,0,0.9-0.21,0.9-0.92v-0.57c0-0.71-0.19-0.9-0.9-0.9h-1.3c-0.71,0-1.06-0.33-1.06-1.04v-3.62c0-0.71,0.26-1.02,0.97-1.02
			h2.15c0.71,0,1.06-0.21,1.06-0.92v-0.57C331.96,93.04,331.61,92.85,330.9,92.85z M382.78,92.85h-2.81c-2.36,0-4,0.85-4,3.22v0.35
			c0,2.37-0.17,3.43,1.18,4.52l4.92,3.95c1.11,0.88,0.9,1.59,0.9,2.77v0.24c0,0.71-0.35,1.06-1.06,1.06h-1.16
			c-0.71,0-1.06-0.54-1.06-1.73c0-0.71-0.28-1.49-0.99-1.49h-1.54c-0.71,0-1.23,0.54-1.23,1.25v0.9c0,2.37,1.63,3.45,4,3.45h2.81
			c2.36,0,4-0.85,4-3.22v-0.35c0-2.37,0.28-3.31-1.06-4.38l-4.97-3.97c-1.11-0.88-0.97-1.7-0.97-2.89v-0.24
			c0-0.71,0.35-1.06,1.06-1.06h1.16c0.71,0,1.06,0.54,1.06,1.73c0,0.71,0.4,1.49,1.11,1.49h1.54c0.71,0,1.11-0.54,1.11-1.25v-0.9
			C386.77,93.94,385.14,92.85,382.78,92.85z M437.59,92.85h-2.81c-2.36,0-4,0.85-4,3.22v0.35c0,2.37-0.17,3.43,1.18,4.52l4.92,3.95
			c1.11,0.88,0.9,1.59,0.9,2.77v0.24c0,0.71-0.35,1.06-1.06,1.06h-1.16c-0.71,0-1.06-0.54-1.06-1.73c0-0.71-0.28-1.49-0.99-1.49
			h-1.54c-0.71,0-1.23,0.54-1.23,1.25v0.9c0,2.37,1.63,3.45,4,3.45h2.81c2.36,0,4-0.85,4-3.22v-0.35c0-2.37,0.28-3.31-1.06-4.38
			l-4.97-3.97c-1.11-0.88-0.97-1.7-0.97-2.89v-0.24c0-0.71,0.35-1.06,1.06-1.06h1.16c0.71,0,1.06,0.54,1.06,1.73
			c0,0.71,0.4,1.49,1.11,1.49h1.54c0.71,0,1.11-0.54,1.11-1.25v-0.9C441.58,93.94,439.95,92.85,437.59,92.85z M492.78,92.85h-5.63
			c-0.71,0-1.23,0.52-1.23,1.23v16.04c0,0.71,0.52,1.23,1.23,1.23h5.63c0.71,0,1.06-0.19,1.06-0.9v-0.59c0-0.71-0.35-0.9-1.06-0.9
			h-2.15c-0.71,0-0.97-0.33-0.97-1.04v-3.6c0-0.71,0.35-1.02,1.06-1.02h1.3c0.71,0,0.9-0.21,0.9-0.92v-0.57c0-0.71-0.19-0.9-0.9-0.9
			h-1.3c-0.71,0-1.06-0.33-1.06-1.04v-3.62c0-0.71,0.26-1.02,0.97-1.02h2.15c0.71,0,1.06-0.21,1.06-0.92v-0.57
			C493.84,93.04,493.49,92.85,492.78,92.85z M544.68,92.85h-5.27c-0.71,0-1.23,0.52-1.23,1.23v16.04c0,0.71,0.52,1.23,1.23,1.23
			h5.27c2.36,0,4.21-0.95,4.21-3.31v-2.27c0-1.89-1.04-3-2.13-3.43c-0.31-0.12-0.31-0.35,0-0.47c1.09-0.43,2.13-1.54,2.13-3.43
			v-2.27C548.89,93.8,547.04,92.85,544.68,92.85z M545.15,106.88c0,1.18-0.64,2.08-1.82,2.08h-0.43c-0.47,0-0.99-0.21-0.99-1.28
			v-3.1c0-1.08,0.48-1.28,1.42-1.28c1.18,0,1.82,1.04,1.82,2.11V106.88z M545.15,98.79c0,1.06-0.64,2.13-1.82,2.13
			c-0.95,0-1.42-0.22-1.42-1.3v-3.12c0-1.06,0.52-1.25,0.99-1.25h0.43c1.18,0,1.82,0.9,1.82,2.08V98.79z M599.39,92.85h-1.47
			c-0.95,0-1.23,0.66-1.3,0.99l-4.04,16.58c-0.09,0.35,0.21,0.92,0.92,0.92h1.47c0.95,0,1.21-0.45,1.3-0.78l0.59-2.32
			c0.09-0.33,0.28-0.54,0.76-0.54h2.08c0.47,0,0.66,0.21,0.76,0.54l0.59,2.32c0.09,0.33,0.35,0.78,1.3,0.78h1.47
			c0.71,0,1.02-0.57,0.92-0.92l-4.04-16.58C600.62,93.51,600.34,92.85,599.39,92.85z M598.66,105.3c-0.71,0-1.06-0.19-0.97-0.78
			l0.8-5.02c0.02-0.1,0.07-0.17,0.17-0.17c0.09,0,0.14,0.07,0.17,0.17l0.8,5.02C599.72,105.11,599.37,105.3,598.66,105.3z
			 M658.18,92.85h-1.49c-0.71,0-1.13,0.4-1.13,1.11v13.67c0,0.71-0.35,1.32-1.06,1.32h-1.16c-0.71,0-1.04-0.61-1.04-1.32V93.96
			c0-0.71-0.45-1.11-1.16-1.11h-1.47c-0.71,0-1.11,0.4-1.11,1.11v13.91c0,2.37,1.37,3.48,3.74,3.48h3.26c2.36,0,3.74-1.11,3.74-3.48
			V93.96C659.29,93.25,658.89,92.85,658.18,92.85z"/>
	</g>
</g>
<g id="Sygnet_graficzny">
	<g>
		<path class="st0" d="M7.6,33.62h20.27V21.47c0-7.49,2.89-14.3,7.6-19.38c-0.43-0.1-0.88-0.17-1.35-0.17H7.6
			c-0.88,0-1.72,0.21-2.47,0.57c-1.9,0.92-3.22,2.86-3.22,5.12v20.31C1.91,31.07,4.46,33.62,7.6,33.62z M108.32,1.93H70.49
			c-15.69,0-28.41,12.75-28.41,28.47v1.94c-0.01,0.05-0.01,0.09-0.01,0.14v23.35c0,5.24-4.24,9.49-9.47,9.49h-25
			c-3.14,0-5.68,2.55-5.68,5.69v20.31c0,3.1,2.46,5.61,5.54,5.69h37.83c15.69,0,28.41-12.75,28.41-28.47v-1.36
			c0.01-0.05,0.01-0.1,0.01-0.15V43.11c0-5.24,4.24-9.49,9.47-9.49h25c3.14,0,5.68-2.55,5.68-5.69V7.62
			C113.85,4.52,111.39,2,108.32,1.93z"/>
	</g>
</g>
<g id="TEAM_SIERON">
	<g>
		<path class="st0" d="M168.35,33.3h17.32v43.75h15.95V33.3h17.24V20.65h-50.5V33.3z M240.6,54.41h25.05V42.49H240.6v-9.51h28.43
			V20.65h-44.22v56.4h45.27V64.73H240.6V54.41z M297.06,20.65l-24.89,56.4h16.27l4.43-10.96h23.84l4.43,10.96h16.59l-24.97-56.4
			H297.06z M297.54,54.33l7.25-18.05l7.25,18.05H297.54z M394.52,20.65L375.19,53.2l-19.81-32.55h-13.13v56.4h14.74V47.97
			l14.42,23.53h7.09l14.5-24.33l0.16,29.89h14.66l-0.16-56.4H394.52z M476.87,45.67c-2.82-1.05-6.38-2.03-10.67-2.94
			c-3.81-0.81-6.58-1.58-8.3-2.34c-1.72-0.75-2.58-1.88-2.58-3.38c0-1.5,0.72-2.73,2.17-3.67c1.45-0.94,3.76-1.41,6.93-1.41
			c5.05,0,10.26,1.45,15.63,4.35l4.91-11.84c-2.74-1.61-5.91-2.83-9.5-3.67c-3.6-0.83-7.25-1.25-10.95-1.25
			c-5.42,0-10,0.81-13.73,2.42c-3.73,1.61-6.54,3.8-8.42,6.57c-1.88,2.77-2.82,5.87-2.82,9.31c0,3.92,1.02,7.04,3.06,9.35
			c2.04,2.31,4.48,3.99,7.33,5.03c2.85,1.05,6.39,2.03,10.63,2.94c3.87,0.86,6.67,1.68,8.42,2.46c1.74,0.78,2.62,1.97,2.62,3.59
			c0,3.06-3.06,4.59-9.18,4.59c-3.22,0-6.5-0.51-9.83-1.53c-3.33-1.02-6.26-2.36-8.78-4.03l-5.24,11.76
			c2.68,1.88,6.17,3.38,10.47,4.51c4.3,1.13,8.73,1.69,13.29,1.69c5.37,0,9.93-0.82,13.69-2.46c3.76-1.64,6.58-3.83,8.46-6.57
			c1.88-2.74,2.82-5.8,2.82-9.19c0-3.92-1.03-7.02-3.1-9.31C482.13,48.38,479.69,46.72,476.87,45.67z M494.63,77.05h15.95v-56.4
			h-15.95V77.05z M537.72,54.41h25.05V42.49h-25.05v-9.51h28.43V20.65h-44.22v56.4h45.27V64.73h-29.48V54.41z M624.03,52.2
			c1.91-3.03,2.86-6.59,2.86-10.67c0-4.24-1.02-7.94-3.06-11.08c-2.04-3.14-4.94-5.56-8.7-7.25c-3.76-1.69-8.19-2.54-13.29-2.54
			h-25.77v56.4h15.95V62.07h8.7l10.23,14.99h17.08l-12.16-17.73C619.39,57.61,622.12,55.23,624.03,52.2z M608.28,47.61
			c-1.67,1.42-4.14,2.14-7.41,2.14h-8.86V33.22h8.86c3.27,0,5.74,0.72,7.41,2.18c1.66,1.45,2.5,3.49,2.5,6.12
			C610.78,44.15,609.94,46.18,608.28,47.61z M680.16,23.31c-4.75-2.52-10.11-3.79-16.07-3.79c-5.96,0-11.32,1.26-16.07,3.79
			c-4.75,2.53-8.48,6.02-11.2,10.47c-2.71,4.46-4.07,9.48-4.07,15.07c0,5.59,1.36,10.61,4.07,15.07c2.71,4.46,6.44,7.95,11.2,10.47
			c4.75,2.53,10.11,3.79,16.07,3.79c5.96,0,11.32-1.26,16.07-3.79c4.75-2.52,8.48-6.01,11.2-10.47c2.71-4.46,4.07-9.48,4.07-15.07
			c0-5.59-1.36-10.61-4.07-15.07C688.65,29.33,684.92,25.84,680.16,23.31z M677.3,57.27c-1.34,2.45-3.17,4.34-5.48,5.68
			c-2.31,1.34-4.89,2.01-7.73,2.01c-2.85,0-5.42-0.67-7.73-2.01c-2.31-1.34-4.14-3.24-5.48-5.68c-1.34-2.44-2.01-5.25-2.01-8.42
			c0-3.17,0.67-5.98,2.01-8.42c1.34-2.44,3.17-4.34,5.48-5.68c2.31-1.34,4.89-2.01,7.73-2.01c2.85,0,5.42,0.67,7.73,2.01
			c2.31,1.34,4.13,3.24,5.48,5.68c1.34,2.45,2.01,5.25,2.01,8.42C679.32,52.02,678.65,54.83,677.3,57.27z M741.82,20.65v30.05
			l-24.89-30.05H703.8v56.4h15.63V47l24.89,30.05h13.13v-56.4H741.82z"/>
	</g>
</g>
</svg>
