<svg
        xmlns="http://www.w3.org/2000/svg"
        xmlns:xlink="http://www.w3.org/1999/xlink"
        width="922px" height="135px">
    <path fill-rule="evenodd"  fill="rgb(26, 35, 47)"
          d="M797.102,134.180 L793.122,134.180 C790.238,134.180 788.566,132.825 788.566,129.940 L788.566,112.977 C788.566,112.112 789.56,111.621 789.921,111.621 L791.709,111.621 C792.574,111.621 793.122,112.112 793.122,112.977 L793.122,129.652 C793.122,130.517 793.526,131.266 794.391,131.266 L795.804,131.266 C796.669,131.266 797.102,130.517 797.102,129.652 L797.102,112.977 C797.102,112.112 797.621,111.621 798.486,111.621 L800.303,111.621 C801.168,111.621 801.658,112.112 801.658,112.977 L801.658,129.940 C801.658,132.825 799.986,134.180 797.102,134.180 ZM734.10,134.180 L732.222,134.180 C731.68,134.180 730.751,133.632 730.636,133.228 L729.915,130.401 C729.800,129.997 729.569,129.738 728.992,129.738 L726.455,129.738 C725.878,129.738 725.647,129.997 725.532,130.401 L724.811,133.228 C724.695,133.632 724.378,134.180 723.225,134.180 L721.437,134.180 C720.572,134.180 720.197,133.487 720.312,133.55 L725.243,112.834 C725.330,112.430 725.676,111.621 726.829,111.621 L728.617,111.621 C729.771,111.621 730.117,112.430 730.203,112.834 L735.135,133.55 C735.250,133.487 734.875,134.180 734.10,134.180 ZM728.906,125.843 L727.925,119.728 C727.896,119.612 727.839,119.526 727.723,119.526 C727.608,119.526 727.550,119.612 727.522,119.728 L726.541,125.843 C726.426,126.564 726.858,126.795 727.723,126.795 C728.588,126.795 729.21,126.564 728.906,125.843 ZM661.892,134.180 L655.461,134.180 C654.596,134.180 653.962,133.546 653.962,132.680 L653.962,113.122 C653.962,112.256 654.596,111.621 655.461,111.621 L661.892,111.621 C664.775,111.621 667.25,112.775 667.25,115.660 L667.25,118.429 C667.25,120.737 665.756,122.93 664.430,122.612 C664.55,122.757 664.55,123.45 664.430,123.189 C665.756,123.709 667.25,125.65 667.25,127.372 L667.25,130.142 C667.25,133.26 664.775,134.180 661.892,134.180 ZM662.469,117.73 C662.469,115.631 661.690,114.535 660.248,114.535 L659.729,114.535 C659.153,114.535 658.518,114.766 658.518,116.64 L658.518,119.872 C658.518,121.184 659.92,121.458 660.248,121.458 C661.690,121.458 662.469,120.159 662.469,118.862 L662.469,117.73 ZM662.469,126.939 C662.469,125.641 661.690,124.372 660.248,124.372 C659.101,124.372 658.518,124.614 658.518,125.930 L658.518,129.709 C658.518,131.7 659.153,131.266 659.729,131.266 L660.248,131.266 C661.690,131.266 662.469,130.170 662.469,128.728 L662.469,126.939 ZM598.598,134.180 L591.735,134.180 C590.870,134.180 590.235,133.546 590.235,132.680 L590.235,113.122 C590.235,112.256 590.870,111.621 591.735,111.621 L598.598,111.621 C599.463,111.621 599.895,111.853 599.895,112.718 L599.895,113.410 C599.895,114.276 599.463,114.535 598.598,114.535 L595.974,114.535 C595.108,114.535 594.791,114.910 594.791,115.775 L594.791,120.189 C594.791,121.54 595.224,121.458 596.89,121.458 L597.675,121.458 C598.540,121.458 598.771,121.689 598.771,122.555 L598.771,123.247 C598.771,124.112 598.540,124.372 597.675,124.372 L596.89,124.372 C595.224,124.372 594.791,124.747 594.791,125.612 L594.791,129.997 C594.791,130.862 595.108,131.266 595.974,131.266 L598.598,131.266 C599.463,131.266 599.895,131.497 599.895,132.363 L599.895,133.83 C599.895,133.949 599.463,134.180 598.598,134.180 ZM534.814,118.458 L532.940,118.458 C532.74,118.458 531.584,117.507 531.584,116.640 C531.584,115.199 531.152,114.535 530.286,114.535 L528.873,114.535 C528.8,114.535 527.576,114.968 527.576,115.833 L527.576,116.122 C527.576,117.564 527.403,118.573 528.758,119.641 L534.814,124.488 C536.457,125.785 536.112,126.939 536.112,129.824 L536.112,130.256 C536.112,133.142 534.122,134.180 531.238,134.180 L527.806,134.180 C524.923,134.180 522.933,132.853 522.933,129.968 L522.933,128.872 C522.933,128.7 523.568,127.343 524.432,127.343 L526.307,127.343 C527.172,127.343 527.518,128.295 527.518,129.161 C527.518,130.603 527.951,131.266 528.816,131.266 L530.229,131.266 C531.94,131.266 531.527,130.834 531.527,129.968 L531.527,129.679 C531.527,128.238 531.786,127.372 530.431,126.304 L524.432,121.488 C522.789,120.159 522.991,118.862 522.991,115.977 L522.991,115.545 C522.991,112.659 524.980,111.621 527.864,111.621 L531.296,111.621 C534.180,111.621 536.169,112.948 536.169,115.833 L536.169,116.929 C536.169,117.795 535.679,118.458 534.814,118.458 ZM467.973,118.458 L466.99,118.458 C465.234,118.458 464.743,117.507 464.743,116.640 C464.743,115.199 464.311,114.535 463.446,114.535 L462.33,114.535 C461.167,114.535 460.735,114.968 460.735,115.833 L460.735,116.122 C460.735,117.564 460.562,118.573 461.917,119.641 L467.973,124.488 C469.617,125.785 469.271,126.939 469.271,129.824 L469.271,130.256 C469.271,133.142 467.281,134.180 464.397,134.180 L460.966,134.180 C458.82,134.180 456.92,132.853 456.92,129.968 L456.92,128.872 C456.92,128.7 456.726,127.343 457.592,127.343 L459.466,127.343 C460.331,127.343 460.677,128.295 460.677,129.161 C460.677,130.603 461.110,131.266 461.975,131.266 L463.388,131.266 C464.253,131.266 464.686,130.834 464.686,129.968 L464.686,129.679 C464.686,128.238 464.945,127.372 463.590,126.304 L457.592,121.488 C455.948,120.159 456.150,118.862 456.150,115.977 L456.150,115.545 C456.150,112.659 458.140,111.621 461.23,111.621 L464.455,111.621 C467.339,111.621 469.328,112.948 469.328,115.833 L469.328,116.929 C469.328,117.795 468.838,118.458 467.973,118.458 ZM401.190,134.180 L394.327,134.180 C393.461,134.180 392.827,133.546 392.827,132.680 L392.827,113.122 C392.827,112.256 393.461,111.621 394.327,111.621 L401.190,111.621 C402.55,111.621 402.487,111.853 402.487,112.718 L402.487,113.410 C402.487,114.276 402.55,114.535 401.190,114.535 L398.566,114.535 C397.700,114.535 397.383,114.910 397.383,115.775 L397.383,120.189 C397.383,121.54 397.816,121.458 398.681,121.458 L400.267,121.458 C401.132,121.458 401.363,121.689 401.363,122.555 L401.363,123.247 C401.363,124.112 401.132,124.372 400.267,124.372 L398.681,124.372 C397.816,124.372 397.383,124.747 397.383,125.612 L397.383,129.997 C397.383,130.862 397.700,131.266 398.566,131.266 L401.190,131.266 C402.55,131.266 402.487,131.497 402.487,132.363 L402.487,133.83 C402.487,133.949 402.55,134.180 401.190,134.180 ZM337.233,134.180 L335.445,134.180 C334.580,134.180 334.90,133.604 334.90,132.738 L334.90,123.680 C334.90,123.622 334.90,122.843 333.917,122.843 C333.773,122.843 333.571,123.593 333.571,123.593 L331.350,130.142 C331.62,130.978 330.716,131.584 329.995,131.584 L329.188,131.584 C328.466,131.584 328.121,130.978 327.832,130.142 L325.612,123.593 C325.612,123.593 325.410,122.843 325.265,122.843 C325.93,122.843 325.93,123.622 325.93,123.680 L325.93,132.738 C325.93,133.604 324.574,134.180 323.708,134.180 L321.921,134.180 C321.55,134.180 320.594,133.604 320.594,132.738 L320.594,113.122 C320.594,112.256 321.228,111.621 322.93,111.621 L323.622,111.621 C324.775,111.621 325.93,112.834 325.179,113.122 L329.332,124.949 C329.360,125.65 329.447,125.237 329.591,125.237 C329.735,125.237 329.793,125.65 329.822,124.949 L333.974,113.122 C334.61,112.834 334.436,111.621 335.589,111.621 L337.118,111.621 C337.983,111.621 338.588,112.256 338.588,113.122 L338.588,132.738 C338.588,133.604 338.98,134.180 337.233,134.180 Z"/>
    <path fill-rule="evenodd"  fill="rgb(26, 35, 47)"
          d="M129.570,39.387 L99.81,39.387 C92.700,39.387 87.532,44.565 87.532,50.960 L87.532,80.125 L87.532,81.513 C87.532,81.571 87.532,81.638 87.523,81.696 L87.523,81.966 C87.523,101.140 72.9,116.686 52.876,116.686 L50.528,116.686 C50.470,116.695 50.403,116.695 50.345,116.695 L49.575,116.695 L6.921,116.695 C6.864,116.695 6.806,116.695 6.748,116.686 C2.995,116.599 0.7,113.532 0.7,109.751 L0.7,84.985 C0.7,81.146 3.91,78.41 6.921,78.41 L37.410,78.41 C43.791,78.41 48.959,72.862 48.959,66.467 L48.959,37.998 L48.959,36.608 C48.959,36.551 48.959,36.492 48.969,36.435 L48.969,35.462 C48.969,16.288 64.483,0.741 83.615,0.741 L85.973,0.741 C86.31,0.732 86.89,0.732 86.146,0.732 L86.926,0.732 L129.570,0.732 C129.628,0.732 129.695,0.732 129.753,0.741 C133.496,0.829 136.499,3.896 136.499,7.676 L136.499,32.442 C136.499,36.281 133.400,39.387 129.570,39.387 ZM31.636,39.387 L6.921,39.387 C3.101,39.387 0.7,36.281 0.7,32.442 L0.7,7.676 C0.7,3.837 3.101,0.732 6.921,0.732 L39.258,0.732 C39.826,0.732 40.374,0.809 40.904,0.934 C35.158,7.137 31.636,15.439 31.636,24.572 L31.636,39.387 Z"/>
    <path fill-rule="evenodd"  fill="rgb(26, 35, 47)"
          d="M905.351,92.355 L875.0,55.706 L875.0,92.355 L855.945,92.355 L855.945,23.576 L871.956,23.576 L902.307,60.225 L902.307,23.576 L921.362,23.576 L921.362,92.355 L905.351,92.355 ZM827.117,89.113 C821.322,92.193 814.790,93.730 807.522,93.730 C800.253,93.730 793.721,92.193 787.926,89.113 C782.131,86.35 777.579,81.778 774.273,76.340 C770.966,70.903 769.313,64.779 769.313,57.966 C769.313,51.153 770.966,45.30 774.273,39.592 C777.579,34.155 782.131,29.898 787.926,26.818 C793.721,23.740 800.253,22.199 807.522,22.199 C814.790,22.199 821.322,23.740 827.117,26.818 C832.912,29.898 837.463,34.155 840.770,39.592 C844.76,45.30 845.730,51.153 845.730,57.966 C845.730,64.779 844.76,70.903 840.770,76.340 C837.463,81.778 832.912,86.35 827.117,89.113 ZM823.630,47.698 C821.993,44.718 819.766,42.409 816.951,40.771 C814.135,39.134 810.992,38.314 807.522,38.314 C804.50,38.314 800.907,39.134 798.93,40.771 C795.276,42.409 793.49,44.718 791.413,47.698 C789.776,50.680 788.958,54.101 788.958,57.966 C788.958,61.831 789.776,65.254 791.413,68.233 C793.49,71.215 795.276,73.524 798.93,75.161 C800.907,76.798 804.50,77.617 807.522,77.617 C810.992,77.617 814.135,76.798 816.951,75.161 C819.766,73.524 821.993,71.215 823.630,68.233 C825.266,65.254 826.86,61.831 826.86,57.966 C826.86,54.101 825.266,50.680 823.630,47.698 ZM742.695,92.355 L730.221,74.80 L719.613,74.80 L719.613,92.355 L700.165,92.355 L700.165,23.576 L731.596,23.576 C737.816,23.576 743.218,24.608 747.803,26.670 C752.385,28.734 755.921,31.682 758.411,35.514 C760.898,39.346 762.143,43.851 762.143,49.25 C762.143,54.3 760.980,58.344 758.656,62.43 C756.331,65.745 753.9,68.644 748.687,70.739 L763.518,92.355 L742.695,92.355 ZM739.454,41.557 C737.423,39.788 734.410,38.904 730.417,38.904 L719.613,38.904 L719.613,59.46 L730.417,59.46 C734.410,59.46 737.423,58.179 739.454,56.443 C741.482,54.708 742.499,52.235 742.499,49.25 C742.499,45.815 741.482,43.325 739.454,41.557 ZM634.159,23.576 L688.83,23.576 L688.83,38.609 L653.411,38.609 L653.411,50.204 L683.958,50.204 L683.958,64.745 L653.411,64.745 L653.411,77.322 L689.360,77.322 L689.360,92.355 L634.159,92.355 L634.159,23.576 ZM600.862,23.576 L620.309,23.576 L620.309,92.355 L600.862,92.355 L600.862,23.576 ZM566.189,50.498 C571.427,51.613 575.766,52.808 579.203,54.85 C582.641,55.361 585.620,57.393 588.142,60.176 C590.662,62.961 591.923,66.744 591.923,71.525 C591.923,75.652 590.777,79.386 588.486,82.727 C586.193,86.68 582.755,88.737 578.172,90.734 C573.588,92.732 568.21,93.730 561.474,93.730 C555.908,93.730 550.506,93.43 545.268,91.668 C540.28,90.292 535.772,88.459 532.499,86.166 L538.883,71.820 C541.960,73.851 545.529,75.490 549.590,76.733 C553.649,77.978 557.644,78.600 561.572,78.600 C569.37,78.600 572.770,76.733 572.770,72.999 C572.770,71.34 571.705,69.577 569.578,68.627 C567.449,67.678 564.28,66.677 559.313,65.631 C554.140,64.517 549.818,63.321 546.348,62.43 C542.876,60.766 539.898,58.719 537.410,55.903 C534.921,53.86 533.677,49.287 533.677,44.504 C533.677,40.313 534.822,36.530 537.115,33.156 C539.406,29.783 542.827,27.113 547.379,25.148 C551.930,23.183 557.512,22.199 564.126,22.199 C568.645,22.199 573.97,22.708 577.485,23.722 C581.871,24.740 585.735,26.229 589.75,28.193 L583.83,42.637 C576.535,39.100 570.183,37.332 564.28,37.332 C560.164,37.332 557.349,37.907 555.581,39.51 C553.813,40.198 552.929,41.689 552.929,43.522 C552.929,45.357 553.976,46.732 556.72,47.649 C558.167,48.566 561.539,49.516 566.189,50.498 ZM476.905,55.903 L459.225,85.576 L450.581,85.576 L432.999,56.884 L432.999,92.355 L415.25,92.355 L415.25,23.576 L431.35,23.576 L455.198,63.271 L478.771,23.576 L494.781,23.576 L494.978,92.355 L477.101,92.355 L476.905,55.903 ZM383.888,78.993 L354.814,78.993 L349.412,92.355 L329.571,92.355 L359.922,23.576 L379.75,23.576 L409.524,92.355 L389.290,92.355 L383.888,78.993 ZM369.351,42.637 L360.511,64.647 L378.191,64.647 L369.351,42.637 ZM271.816,23.576 L325.740,23.576 L325.740,38.609 L291.68,38.609 L291.68,50.204 L321.615,50.204 L321.615,64.745 L291.68,64.745 L291.68,77.322 L327.17,77.322 L327.17,92.355 L271.816,92.355 L271.816,23.576 ZM243.528,92.355 L224.80,92.355 L224.80,39.3 L202.962,39.3 L202.962,23.576 L264.548,23.576 L264.548,39.3 L243.528,39.3 L243.528,92.355 Z"/>
</svg>
